<?xml version="1.0" standalone="no"?>
<!DOCTYPE svg PUBLIC "-//W3C//DTD SVG 20010904//EN"
 "http://www.w3.org/TR/2001/REC-SVG-20010904/DTD/svg10.dtd">
<svg version="1.0" xmlns="http://www.w3.org/2000/svg"
 width="500.000000pt" height="500.000000pt" viewBox="0 0 500.000000 500.000000"
 preserveAspectRatio="xMidYMid meet">
<metadata>
Created by potrace 1.11, written by Peter Selinger 2001-2013
</metadata>
<g transform="translate(0.000000,500.000000) scale(0.100000,-0.100000)"
fill="#000000" stroke="none">
<path d="M0 2500 l0 -2500 2500 0 2500 0 0 2500 0 2500 -2500 0 -2500 0 0
-2500z m2751 1248 c0 -2 44 -353 98 -780 l97 -778 -591 0 -591 0 57 -457 c32
-252 58 -464 59 -471 0 -10 -35 -12 -157 -10 l-158 3 -156 1243 c-85 683 -153
1245 -150 1247 4 5 1490 7 1492 3z m809 -334 c0 -3 43 -350 95 -771 52 -421
95 -769 95 -774 0 -5 -259 -9 -593 -9 l-594 0 -9 86 c-5 47 -8 87 -5 90 2 2
132 4 287 4 l284 0 -5 28 c-9 45 -165 1312 -165 1333 0 18 10 19 305 19 168 0
305 -3 305 -6z"/>
</g>
</svg>
